<svg id="Слой_1" data-name="Слой 1" xmlns="http://www.w3.org/2000/svg" viewBox="0 0 150 190"><defs><style>.cls-1{fill-rule:evenodd;}</style></defs><title>Монтажная область 13</title><path class="cls-1" d="M102.83,145.81,91.18,133.16a37.64,37.64,0,0,1-18.49,4.38,28.42,28.42,0,0,1-15.14-4.89L46.84,147.76c-7.88,8-18.87-3.84-11.63-11l9.46-8.31,10.67-9.16c4.24,2.81,8.59,4.46,12.79,4.46,46,0,30.48-67.3-5.42-79.08l2.49-1.06c37.46,5.4,53.09,53.47,37.37,78.67l12,11.13C122.55,141.29,110,153.06,102.83,145.81ZM82.2,73l-15.73,16L86.06,107l-9.55,10.2L58.19,97.32,46.44,109.25,33.06,94.79,44.89,82.88l-4-4.32,7.56-6.27,3.62,3.34,8.28-8.34L78.6,68.76Z"/></svg>