<svg id="Слой_1" data-name="Слой 1" xmlns="http://www.w3.org/2000/svg" viewBox="0 0 150 190"><defs><style>.cls-1{fill-rule:evenodd;}</style></defs><title>Монтажная область 9</title><path class="cls-1" d="M112.65,104.64l-4.84-9.54,13.53-5.65-1,10.83Zm-3.35,4.67L84.86,107,52.11,143.47C44,153.21,29.5,140.2,37,131.41l28.92-29.12L50.13,85.12l-4.78-.25L39.1,73.77l6.58-5.62L55.6,76l-.38,4.49,15.62,16.8,6.72-6.77,8.07-20.45,25.45-1.81,3.67,6.5L98.14,83.23Zm-60,22.84c-5-4.18-11.57,3.19-6.27,7.64C47.86,143.85,54.24,136.31,49.29,132.15ZM93.93,113s11.83,12.16,18.7,18.71c8.48,8.1-8.59,22.4-16.48,14.15-6-6.23-18-22-18-22L87,113.25Z"/></svg>